<svg width="59" height="69" viewBox="0 0 59 69" fill="none" xmlns="http://www.w3.org/2000/svg">
<path d="M29.5 0L59.0001 16.711L59 35.75H0L3.05176e-05 16.711L29.5 0Z" fill="#2771EA"/>
<path d="M29.5 0L59.0001 16.711L59 35.75H0L3.05176e-05 16.711L29.5 0Z" fill="white" fill-opacity="0.3"/>
<path d="M29.5 0L59.0001 16.711L59 35.75H0L3.05176e-05 16.711L29.5 0Z" fill="#2771EA"/>
<path d="M29.5 0L59.0001 16.711L59 35.75H0L3.05176e-05 16.711L29.5 0Z" fill="white" fill-opacity="0.3"/>
<path d="M29.5 68.75L-5.95742e-05 52.039L-2.73922e-05 33L59 33L59 52.039L29.5 68.75Z" fill="#2771EA"/>
<path d="M29.5 68.75L-5.95742e-05 52.039L-2.73922e-05 33L59 33L59 52.039L29.5 68.75Z" fill="white" fill-opacity="0.3"/>
<path d="M29.5 68.75L-5.95742e-05 52.039L-2.73922e-05 33L59 33L59 52.039L29.5 68.75Z" fill="#2771EA"/>
<path d="M29.5 68.75L-5.95742e-05 52.039L-2.73922e-05 33L59 33L59 52.039L29.5 68.75Z" fill="white" fill-opacity="0.3"/>
<path fill-rule="evenodd" clip-rule="evenodd" d="M30 19L34.6355 28.8744L45 30.4672L37.5004 38.1477L39.2706 49L30 43.8738L20.7294 49L22.4996 38.1477L15 30.4672L25.3645 28.8744L30 19ZM30 25.4568L27.17 31.4852L20.8395 32.4581L25.4202 37.1493L24.3394 43.7748L30 40.6448L35.6606 43.7748L34.5798 37.1493L39.1605 32.4581L32.83 31.4852L30 25.4568Z" fill="white"/>
</svg>
