<svg width="59" height="69" viewBox="0 0 59 69" fill="none" xmlns="http://www.w3.org/2000/svg">
<path d="M29.5001 0L59.0001 16.711L59.0001 35.75H6.10352e-05L9.15527e-05 16.711L29.5001 0Z" fill="#8E46EA"/>
<path d="M29.5001 0L59.0001 16.711L59.0001 35.75H6.10352e-05L9.15527e-05 16.711L29.5001 0Z" fill="white" fill-opacity="0.3"/>
<path d="M29.5001 0L59.0001 16.711L59.0001 35.75H6.10352e-05L9.15527e-05 16.711L29.5001 0Z" fill="#8E46EA"/>
<path d="M29.5001 0L59.0001 16.711L59.0001 35.75H6.10352e-05L9.15527e-05 16.711L29.5001 0Z" fill="white" fill-opacity="0.3"/>
<path d="M29.5 68.75L1.46093e-06 52.039L3.36429e-05 33L59.0001 33L59 52.039L29.5 68.75Z" fill="#8E46EA"/>
<path d="M29.5 68.75L1.46093e-06 52.039L3.36429e-05 33L59.0001 33L59 52.039L29.5 68.75Z" fill="white" fill-opacity="0.3"/>
<path d="M29.5 68.75L1.46093e-06 52.039L3.36429e-05 33L59.0001 33L59 52.039L29.5 68.75Z" fill="#8E46EA"/>
<path d="M29.5 68.75L1.46093e-06 52.039L3.36429e-05 33L59.0001 33L59 52.039L29.5 68.75Z" fill="white" fill-opacity="0.3"/>
<path fill-rule="evenodd" clip-rule="evenodd" d="M31.4211 19V23.9485H37.7368V26.732H31.4211V32.6082H33.1579C34.7073 32.6082 36.1933 33.2111 37.2889 34.2841C38.3845 35.3571 39 36.8124 39 38.3299C39 39.8474 38.3845 41.3027 37.2889 42.3757C36.1933 43.4487 34.7073 44.0515 33.1579 44.0515H31.4211V49H28.5789V44.0515H21V41.268H28.5789V35.3918H26.8421C25.2927 35.3918 23.8067 34.7889 22.7111 33.7159C21.6155 32.6429 21 31.1876 21 29.6701C21 28.1526 21.6155 26.6973 22.7111 25.6243C23.8067 24.5513 25.2927 23.9485 26.8421 23.9485H28.5789V19H31.4211ZM28.5789 26.732H26.8421C26.0465 26.732 25.2834 27.0415 24.7208 27.5925C24.1582 28.1435 23.8421 28.8909 23.8421 29.6701C23.8421 30.4493 24.1582 31.1967 24.7208 31.7477C25.2834 32.2987 26.0465 32.6082 26.8421 32.6082H28.5789V26.732ZM31.4211 35.3918V41.268H33.1579C33.9535 41.268 34.7166 40.9585 35.2792 40.4075C35.8418 39.8565 36.1579 39.1091 36.1579 38.3299C36.1579 37.5507 35.8418 36.8033 35.2792 36.2523C34.7166 35.7013 33.9535 35.3918 33.1579 35.3918H31.4211Z" fill="white"/>
</svg>
